<svg width="231" height="763" viewBox="0 0 231 763" fill="none" xmlns="http://www.w3.org/2000/svg">
<mask id="mask0_3652_31137" style="mask-type:alpha" maskUnits="userSpaceOnUse" x="-371" y="0" width="602" height="763">
<path fill-rule="evenodd" clip-rule="evenodd" d="M-362.147 763H-370.781V0H-362.147V763ZM-353.352 763H-344.718V0H-353.352V763ZM-327.288 763H-335.922V0H-327.288V763ZM-318.484 763H-309.851V0H-318.484V763ZM-292.421 763H-301.055V0H-292.421V763ZM-283.633 763H-274.999V0H-283.633V763ZM-257.562 763H-266.195V0H-257.562V763ZM-248.766 763H-240.132V0H-248.766V763ZM-222.702 763H-231.336V0H-222.702V763ZM-213.898 763H-205.265V0H-213.898V763ZM-187.843 763H-196.477V0H-187.843V763ZM-179.039 763H-170.405V0H-179.039V763ZM-152.976 763H-161.609V0H-152.976V763ZM-144.18 763H-135.546V0H-144.18V763ZM-118.116 763H-126.75V0H-118.116V763ZM-109.32 763H-100.686V0H-109.32V763ZM-83.249 763H-91.8828V0H-83.249V763ZM-65.8193 763H-74.4531V0H-65.8193V763ZM-48.3896 763H-57.0234V0H-48.3896V763ZM-30.9677 763H-39.6016V0H-30.9677V763ZM-13.5302 763H-22.1641V0H-13.5302V763ZM3.90726 763H-4.72656V0H3.90726V763ZM21.3369 763H12.7031V0H21.3369V763ZM38.7666 763H30.1328V0H38.7666V763ZM56.1885 763H47.5547V0H56.1885V763ZM64.9922 763H73.626V0H64.9922V763ZM221.867 763H230.501V0H221.867V763ZM204.438 763H213.071V0H204.438V763ZM187.008 763H195.642V0H187.008V763ZM169.57 763H178.204V0H169.57V763ZM152.141 763H160.774V0H152.141V763ZM134.711 763H143.345V0H134.711V763ZM117.281 763H125.915V0H117.281V763ZM99.8516 763H108.485V0H99.8516V763ZM82.4219 763H91.0557V0H82.4219V763Z" fill="#D9D9D9"/>
</mask>
<g mask="url(#mask0_3652_31137)">
<g filter="url(#filter0_f_3652_31137)">
<path d="M109.842 499.512C109.842 433.465 -193.576 354.44 -267.052 354.44C-340.528 354.44 -148.454 414.351 -148.454 480.397C-178.64 600.64 -85.9237 599.986 -12.4478 599.986C61.028 599.986 109.842 565.559 109.842 499.512Z" fill="#A077F8"/>
</g>
<g filter="url(#filter1_f_3652_31137)">
<path d="M5.12791 317.101C5.12791 245.7 -46.9863 130.534 -111.272 130.534C-175.558 130.534 -227.672 245.7 -227.672 317.101C-227.672 388.502 -175.558 364.994 -111.272 364.994C-46.9861 364.994 5.12791 388.502 5.12791 317.101Z" fill="#EF5266"/>
</g>
<g filter="url(#filter2_f_3652_31137)">
<path d="M18.6465 418.019C18.6465 403.358 -24.8332 379.71 -78.4679 379.71C-132.103 379.71 -175.582 403.358 -175.582 418.019C-175.582 432.68 -132.102 427.853 -78.4678 427.853C-24.833 427.853 18.6465 432.68 18.6465 418.019Z" fill="#EDC2C6"/>
</g>
</g>
<defs>
<filter id="filter0_f_3652_31137" x="-433.316" y="204.925" width="692.673" height="544.576" filterUnits="userSpaceOnUse" color-interpolation-filters="sRGB">
<feFlood flood-opacity="0" result="BackgroundImageFix"/>
<feBlend mode="normal" in="SourceGraphic" in2="BackgroundImageFix" result="shape"/>
<feGaussianBlur stdDeviation="74.7576" result="effect1_foregroundBlur_3652_31137"/>
</filter>
<filter id="filter1_f_3652_31137" x="-377.187" y="-18.9816" width="531.83" height="537.197" filterUnits="userSpaceOnUse" color-interpolation-filters="sRGB">
<feFlood flood-opacity="0" result="BackgroundImageFix"/>
<feBlend mode="normal" in="SourceGraphic" in2="BackgroundImageFix" result="shape"/>
<feGaussianBlur stdDeviation="74.7576" result="effect1_foregroundBlur_3652_31137"/>
</filter>
<filter id="filter2_f_3652_31137" x="-325.097" y="230.195" width="493.259" height="347.934" filterUnits="userSpaceOnUse" color-interpolation-filters="sRGB">
<feFlood flood-opacity="0" result="BackgroundImageFix"/>
<feBlend mode="normal" in="SourceGraphic" in2="BackgroundImageFix" result="shape"/>
<feGaussianBlur stdDeviation="74.7576" result="effect1_foregroundBlur_3652_31137"/>
</filter>
</defs>
</svg>
