<svg width="744" height="744" viewBox="0 0 744 744" fill="none" xmlns="http://www.w3.org/2000/svg">
<g clip-path="url(#clip0_1010_7122)">
<path fill-rule="evenodd" clip-rule="evenodd" d="M173.302 371.613C173.302 424.263 194.217 474.757 231.446 511.987C268.676 549.217 319.17 570.132 371.821 570.132L371.821 743.219C273.265 743.219 178.745 704.067 109.056 634.378C39.366 564.688 0.214824 470.169 0.214828 371.612C0.214831 273.056 39.366 178.537 109.056 108.847C178.745 39.1575 273.265 0.00627469 371.821 0.00627038L371.821 173.093C319.17 173.093 268.676 194.008 231.446 231.238C194.217 268.468 173.302 318.962 173.302 371.613Z" fill="url(#paint0_linear_1010_7122)"/>
<path fill-rule="evenodd" clip-rule="evenodd" d="M257.493 371.612C257.493 401.936 269.539 431.018 290.981 452.46C312.423 473.902 341.505 485.948 371.829 485.948L371.829 570.328C319.126 570.328 268.582 549.392 231.316 512.126C194.049 474.859 173.113 424.315 173.113 371.612C173.113 318.91 194.049 268.365 231.316 231.099C268.582 193.833 319.126 172.896 371.829 172.896L371.829 257.276C341.505 257.276 312.423 269.322 290.981 290.764C269.539 312.207 257.493 341.288 257.493 371.612Z" fill="url(#paint1_linear_1010_7122)"/>
<path fill-rule="evenodd" clip-rule="evenodd" d="M659.046 371.61C659.046 295.433 628.785 222.376 574.919 168.51C521.054 114.645 447.997 84.3837 371.82 84.3837L371.82 0.00389001C470.376 0.0039092 564.895 39.1552 634.585 108.845C704.275 178.535 743.426 273.054 743.426 371.61C743.426 470.166 704.275 564.686 634.585 634.375C564.895 704.065 470.376 743.216 371.82 743.216L371.82 658.837C447.997 658.837 521.054 628.575 574.919 574.71C628.785 520.845 659.046 447.787 659.046 371.61Z" fill="url(#paint2_linear_1010_7122)"/>
<path fill-rule="evenodd" clip-rule="evenodd" d="M448.078 371.607C448.078 351.386 440.045 331.993 425.747 317.694C411.449 303.396 392.056 295.363 371.835 295.363L371.835 172.039C424.764 172.039 475.524 193.065 512.95 230.491C550.377 267.917 571.402 318.678 571.402 371.607C571.402 424.535 550.377 475.296 512.95 512.722C475.524 550.148 424.764 571.174 371.835 571.174L371.835 447.85C392.056 447.85 411.449 439.817 425.747 425.519C440.045 411.22 448.078 391.827 448.078 371.607Z" fill="url(#paint3_linear_1010_7122)"/>
</g>
<defs>
<linearGradient id="paint0_linear_1010_7122" x1="260.926" y1="48.395" x2="263.428" y2="752.652" gradientUnits="userSpaceOnUse">
<stop stop-color="#A077F8" stop-opacity="0"/>
<stop offset="1" stop-color="#A077F8"/>
</linearGradient>
<linearGradient id="paint1_linear_1010_7122" x1="380.415" y1="646.192" x2="383.438" y2="172.896" gradientUnits="userSpaceOnUse">
<stop stop-color="#A077F8" stop-opacity="0"/>
<stop offset="1" stop-color="#A077F8"/>
</linearGradient>
<linearGradient id="paint2_linear_1010_7122" x1="383.002" y1="757.229" x2="389.116" y2="-39.0084" gradientUnits="userSpaceOnUse">
<stop stop-color="#A077F8" stop-opacity="0"/>
<stop offset="1" stop-color="#A077F8"/>
</linearGradient>
<linearGradient id="paint3_linear_1010_7122" x1="397.67" y1="215.809" x2="403.074" y2="571.174" gradientUnits="userSpaceOnUse">
<stop stop-color="#A077F8" stop-opacity="0"/>
<stop offset="1" stop-color="#A077F8"/>
</linearGradient>
<clipPath id="clip0_1010_7122">
<rect width="743.215" height="743.212" fill="white" transform="matrix(4.37113e-08 -1 -1 -4.37114e-08 743.426 743.219)"/>
</clipPath>
</defs>
</svg>
